{
	"asset":
	{
		"version": "2.0",
		"generator": "Unreal Engine 5.8.0"
	},
	"scene": 0,
	"accessors": [
		{
			"bufferView": 0,
			"count": 1536,
			"type": "SCALAR",
			"componentType": 5123
		},
		{
			"bufferView": 1,
			"count": 334,
			"type": "VEC3",
			"componentType": 5126,
			"min": [
				-0.5,
				-0.5,
				-0.5
			],
			"max": [
				0.5,
				0.5,
				0.5
			]
		},
		{
			"bufferView": 2,
			"count": 334,
			"type": "VEC3",
			"componentType": 5126
		},
		{
			"bufferView": 3,
			"count": 334,
			"type": "VEC4",
			"componentType": 5126
		},
		{
			"bufferView": 4,
			"count": 334,
			"type": "VEC2",
			"componentType": 5126
		},
		{
			"bufferView": 5,
			"count": 334,
			"type": "VEC2",
			"componentType": 5126
		},
		{
			"bufferView": 6,
			"count": 144,
			"type": "SCALAR",
			"componentType": 5121
		},
		{
			"bufferView": 7,
			"count": 54,
			"type": "VEC3",
			"componentType": 5126,
			"min": [
				-0.5,
				-0.5,
				-0.5
			],
			"max": [
				0.5,
				0.5,
				0.5
			]
		},
		{
			"bufferView": 8,
			"count": 54,
			"type": "VEC3",
			"componentType": 5126
		},
		{
			"bufferView": 9,
			"count": 54,
			"type": "VEC4",
			"componentType": 5126
		},
		{
			"bufferView": 10,
			"count": 54,
			"type": "VEC2",
			"componentType": 5126
		},
		{
			"bufferView": 11,
			"count": 54,
			"type": "VEC2",
			"componentType": 5126
		},
		{
			"bufferView": 12,
			"count": 2880,
			"type": "SCALAR",
			"componentType": 5123
		},
		{
			"bufferView": 13,
			"count": 559,
			"type": "VEC3",
			"componentType": 5126,
			"min": [
				-0.5,
				-0.5,
				-0.49999994
			],
			"max": [
				0.5,
				0.5,
				0.5
			]
		},
		{
			"bufferView": 14,
			"count": 559,
			"type": "VEC3",
			"componentType": 5126
		},
		{
			"bufferView": 15,
			"count": 559,
			"type": "VEC4",
			"componentType": 5126
		},
		{
			"bufferView": 16,
			"count": 559,
			"type": "VEC2",
			"componentType": 5126
		},
		{
			"bufferView": 17,
			"count": 559,
			"type": "VEC2",
			"componentType": 5126
		}
	],
	"buffers": [
		{
			"uri": "cauldron.bin",
			"byteLength": 62008
		}
	],
	"bufferViews": [
		{
			"buffer": 0,
			"byteLength": 3072,
			"target": 34963
		},
		{
			"buffer": 0,
			"byteLength": 4008,
			"byteOffset": 3072,
			"target": 34962
		},
		{
			"buffer": 0,
			"byteLength": 4008,
			"byteOffset": 7080,
			"target": 34962
		},
		{
			"buffer": 0,
			"byteLength": 5344,
			"byteOffset": 11088,
			"target": 34962
		},
		{
			"buffer": 0,
			"byteLength": 2672,
			"byteOffset": 16432,
			"target": 34962
		},
		{
			"buffer": 0,
			"byteLength": 2672,
			"byteOffset": 19104,
			"target": 34962
		},
		{
			"buffer": 0,
			"byteLength": 144,
			"byteOffset": 21776,
			"target": 34963
		},
		{
			"buffer": 0,
			"byteLength": 648,
			"byteOffset": 21920,
			"target": 34962
		},
		{
			"buffer": 0,
			"byteLength": 648,
			"byteOffset": 22568,
			"target": 34962
		},
		{
			"buffer": 0,
			"byteLength": 864,
			"byteOffset": 23216,
			"target": 34962
		},
		{
			"buffer": 0,
			"byteLength": 432,
			"byteOffset": 24080,
			"target": 34962
		},
		{
			"buffer": 0,
			"byteLength": 432,
			"byteOffset": 24512,
			"target": 34962
		},
		{
			"buffer": 0,
			"byteLength": 5760,
			"byteOffset": 24944,
			"target": 34963
		},
		{
			"buffer": 0,
			"byteLength": 6708,
			"byteOffset": 30704,
			"target": 34962
		},
		{
			"buffer": 0,
			"byteLength": 6708,
			"byteOffset": 37412,
			"target": 34962
		},
		{
			"buffer": 0,
			"byteLength": 8944,
			"byteOffset": 44120,
			"target": 34962
		},
		{
			"buffer": 0,
			"byteLength": 4472,
			"byteOffset": 53064,
			"target": 34962
		},
		{
			"buffer": 0,
			"byteLength": 4472,
			"byteOffset": 57536,
			"target": 34962
		}
	],
	"materials": [
		{
			"name": "MI_ChromeLite",
			"pbrMetallicRoughness":
			{
				"baseColorFactor": [
					0.526041985,
					0.846073985,
					1,
					1
				],
				"roughnessFactor": 0
			}
		},
		{
			"name": "MI_ChromeMedium_Green",
			"pbrMetallicRoughness":
			{
				"baseColorFactor": [
					0.101562999,
					0.203125,
					0.118592001,
					1
				],
				"roughnessFactor": 0
			}
		},
		{
			"name": "MI_ChromeMedium_Blue",
			"pbrMetallicRoughness":
			{
				"baseColorFactor": [
					0.214718997,
					0.26621899,
					0.286457986,
					1
				],
				"metallicFactor": 0.99000001,
				"roughnessFactor": 0
			}
		},
		{
			"name": "MI_ChromeDark",
			"pbrMetallicRoughness":
			{
				"baseColorFactor": [
					0.057413999,
					0.0765750036,
					0.109375,
					1
				],
				"roughnessFactor": 0
			}
		},
		{
			"name": "MI_ChromeMedium_Desat",
			"pbrMetallicRoughness":
			{
				"baseColorFactor": [
					0.177024007,
					0.286457986,
					0.239280999,
					1
				],
				"roughnessFactor": 0
			}
		}
	],
	"meshes": [
		{
			"name": "Cylinder",
			"primitives": [
				{
					"attributes":
					{
						"POSITION": 1,
						"NORMAL": 2,
						"TANGENT": 3,
						"TEXCOORD_0": 4,
						"TEXCOORD_1": 5
					},
					"indices": 0,
					"material": 0
				}
			]
		},
		{
			"name": "Cylinder",
			"primitives": [
				{
					"attributes":
					{
						"POSITION": 1,
						"NORMAL": 2,
						"TANGENT": 3,
						"TEXCOORD_0": 4,
						"TEXCOORD_1": 5
					},
					"indices": 0,
					"material": 1
				}
			]
		},
		{
			"name": "Cylinder",
			"primitives": [
				{
					"attributes":
					{
						"POSITION": 1,
						"NORMAL": 2,
						"TANGENT": 3,
						"TEXCOORD_0": 4,
						"TEXCOORD_1": 5
					},
					"indices": 0,
					"material": 2
				}
			]
		},
		{
			"name": "Cylinder",
			"primitives": [
				{
					"attributes":
					{
						"POSITION": 1,
						"NORMAL": 2,
						"TANGENT": 3,
						"TEXCOORD_0": 4,
						"TEXCOORD_1": 5
					},
					"indices": 0,
					"material": 3
				}
			]
		},
		{
			"name": "Cylinder",
			"primitives": [
				{
					"attributes":
					{
						"POSITION": 1,
						"NORMAL": 2,
						"TANGENT": 3,
						"TEXCOORD_0": 4,
						"TEXCOORD_1": 5
					},
					"indices": 0,
					"material": 4
				}
			]
		},
		{
			"name": "Cube",
			"primitives": [
				{
					"attributes":
					{
						"POSITION": 7,
						"NORMAL": 8,
						"TANGENT": 9,
						"TEXCOORD_0": 10,
						"TEXCOORD_1": 11
					},
					"indices": 6,
					"material": 4
				}
			]
		},
		{
			"name": "Sphere",
			"primitives": [
				{
					"attributes":
					{
						"POSITION": 13,
						"NORMAL": 14,
						"TANGENT": 15,
						"TEXCOORD_0": 16,
						"TEXCOORD_1": 17
					},
					"indices": 12,
					"material": 1
				}
			]
		}
	],
	"nodes": [
		{
			"name": "Cylinder20",
			"translation": [
				53.519062,
				15.6541634,
				192.20871
			],
			"rotation": [
				0,
				0.866025865,
				-0,
				0.499999195
			],
			"scale": [
				1,
				8.75,
				1
			],
			"mesh": 0
		},
		{
			"name": "Cauldron3",
			"translation": [
				40.198513,
				24.1999416,
				193.860626
			],
			"rotation": [
				0,
				0.866025865,
				-0,
				0.499999195
			],
			"scale": [
				24,
				15,
				24
			],
			"mesh": 1
		},
		{
			"name": "Cylinder21",
			"translation": [
				37.3896103,
				13.4474773,
				215.217575
			],
			"rotation": [
				0,
				0.866025865,
				-0,
				0.499999195
			],
			"scale": [
				1,
				4.5,
				1
			],
			"mesh": 0
		},
		{
			"name": "Cylinder1b16",
			"translation": [
				53.519062,
				19.8065605,
				192.20871
			],
			"rotation": [
				0,
				0.866025865,
				-0,
				0.499999195
			],
			"scale": [
				1.29999995,
				1,
				1.29999995
			],
			"mesh": 0
		},
		{
			"name": "Cylinder1c11",
			"translation": [
				52.8806038,
				19.8065605,
				192.292068
			],
			"rotation": [
				0.541675746,
				0.454519033,
				-0.454519689,
				0.541674852
			],
			"scale": [
				0.200000003,
				2.75,
				0.200000003
			],
			"mesh": 0
		},
		{
			"name": "Cylinder22",
			"translation": [
				30.6296864,
				16.5848179,
				183.222458
			],
			"rotation": [
				-0,
				-0.765735388,
				0,
				0.643155754
			],
			"scale": [
				1,
				10,
				1
			],
			"mesh": 2
		},
		{
			"name": "Cylinder2b8",
			"translation": [
				37.3896103,
				15.540699,
				215.217575
			],
			"rotation": [
				0,
				0.866025865,
				-0,
				0.499999195
			],
			"scale": [
				1.29999995,
				1,
				1.29999995
			],
			"mesh": 0
		},
		{
			"name": "Cylinder3c3",
			"translation": [
				31.3820705,
				19.7000694,
				183.790771
			],
			"rotation": [
				0.260391355,
				-0.260391355,
				-0.657416463,
				0.657416463
			],
			"scale": [
				0.300000012,
				7.25,
				0.300000012
			],
			"mesh": 2
		},
		{
			"name": "Cylinder23",
			"translation": [
				32.9087296,
				16.5848179,
				203.899643
			],
			"rotation": [
				0,
				0.866025865,
				-0,
				0.499999195
			],
			"scale": [
				1,
				10,
				1
			],
			"mesh": 3
		},
		{
			"name": "Cylinder24",
			"translation": [
				28.1806431,
				16.5848179,
				196.973984
			],
			"rotation": [
				0,
				0.866025865,
				-0,
				0.499999195
			],
			"scale": [
				1,
				10,
				1
			],
			"mesh": 3
		},
		{
			"name": "Cylinder25",
			"translation": [
				42.877285,
				16.5848179,
				205.847107
			],
			"rotation": [
				0,
				0.866025865,
				-0,
				0.499999195
			],
			"scale": [
				1,
				10,
				1
			],
			"mesh": 3
		},
		{
			"name": "Base7",
			"translation": [
				40.2716789,
				11.4529238,
				192.712845
			],
			"rotation": [
				0,
				0.866025865,
				-0,
				0.499999195
			],
			"scale": [
				28,
				0.25,
				28
			],
			"mesh": 4
		},
		{
			"name": "Cylinder3b7",
			"translation": [
				30.6287689,
				11.9180298,
				183.228378
			],
			"rotation": [
				-0,
				-0.765735388,
				0,
				0.643155754
			],
			"scale": [
				1.29999995,
				1,
				1.29999995
			],
			"mesh": 2
		},
		{
			"name": "Cylinder26",
			"translation": [
				33.9430466,
				36.3101349,
				187.541168
			],
			"rotation": [
				-0.10446576,
				-0.63246578,
				-0.675062358,
				0.36519143
			],
			"scale": [
				1,
				10.5,
				1
			],
			"mesh": 3
		},
		{
			"name": "Cylinder1b17",
			"translation": [
				37.1198425,
				36.6435471,
				191.333374
			],
			"rotation": [
				-0.10446576,
				-0.63246578,
				-0.675062358,
				0.36519143
			],
			"scale": [
				1.29999995,
				1,
				1.29999995
			],
			"mesh": 3
		},
		{
			"name": "Cylinder1b18",
			"translation": [
				30.6095104,
				35.9545975,
				183.391556
			],
			"rotation": [
				-0.10446576,
				-0.63246578,
				-0.675062358,
				0.36519143
			],
			"scale": [
				1.29999995,
				1,
				1.29999995
			],
			"mesh": 2
		},
		{
			"name": "Cylinder27",
			"translation": [
				36.8007202,
				36.5019341,
				191.685074
			],
			"rotation": [
				-0.37611413,
				0.519862115,
				0.733612359,
				0.223817959
			],
			"scale": [
				0.800000012,
				10,
				0.800000012
			],
			"mesh": 3
		},
		{
			"name": "Cylinder1b19",
			"translation": [
				34.0357628,
				35.0953827,
				194.049133
			],
			"rotation": [
				-0.37611413,
				0.519862115,
				0.733612359,
				0.223817959
			],
			"scale": [
				1.29999995,
				1,
				1.29999995
			],
			"mesh": 3
		},
		{
			"name": "Cylinder1b20",
			"translation": [
				40.1087875,
				38.1851997,
				188.856522
			],
			"rotation": [
				-0.373335719,
				0.521146894,
				0.735532939,
				0.21912922
			],
			"scale": [
				1.29999995,
				1,
				1.29999995
			],
			"mesh": 2
		},
		{
			"name": "Cylinder28",
			"translation": [
				30.6380844,
				28.1465282,
				183.275421
			],
			"rotation": [
				-0.000691429537,
				-0.923546314,
				-0.000377282908,
				0.383486092
			],
			"scale": [
				1,
				14.75,
				1
			],
			"mesh": 2
		},
		{
			"name": "Cylinder3b8",
			"translation": [
				30.6287689,
				21.0982628,
				183.228378
			],
			"rotation": [
				-0,
				-0.765735388,
				0,
				0.643155754
			],
			"scale": [
				1.29999995,
				1,
				1.29999995
			],
			"mesh": 2
		},
		{
			"name": "Base8",
			"translation": [
				55.9167175,
				11.452899,
				183.680115
			],
			"rotation": [
				0,
				0.866025865,
				-0,
				0.499999195
			],
			"scale": [
				28,
				0.25,
				28
			],
			"mesh": 4
		},
		{
			"name": "Base9",
			"translation": [
				47.5776558,
				11.452199,
				188.49469
			],
			"rotation": [
				-1.35262397e-07,
				0.866025865,
				2.34281856e-07,
				0.499999195
			],
			"scale": [
				28,
				0.25,
				18.25
			],
			"mesh": 5
		},
		{
			"name": "Cylinder1c12",
			"translation": [
				37.3719902,
				15.3976831,
				215.483353
			],
			"rotation": [
				0.637789369,
				0.305328459,
				-0.305328816,
				0.637788057
			],
			"scale": [
				0.200000003,
				2.75,
				0.200000003
			],
			"mesh": 0
		},
		{
			"name": "Cylinder1b21",
			"translation": [
				53.519062,
				20.1998367,
				192.20871
			],
			"rotation": [
				0,
				0.866025865,
				-0,
				0.499999195
			],
			"scale": [
				1.10000002,
				0.300000012,
				1.10000002
			],
			"mesh": 0
		},
		{
			"name": "Cylinder1b22",
			"translation": [
				53.519062,
				19.1397743,
				192.20871
			],
			"rotation": [
				0,
				0.866025865,
				-0,
				0.499999195
			],
			"scale": [
				1.20000005,
				0.200000003,
				1.20000005
			],
			"mesh": 0
		},
		{
			"name": "CauldronRing3",
			"translation": [
				40.198513,
				31.0820332,
				193.860626
			],
			"rotation": [
				0,
				0.866025865,
				-0,
				0.499999195
			],
			"scale": [
				24.6000023,
				1,
				24.6000023
			],
			"mesh": 1
		},
		{
			"name": "CauldronBottom3",
			"translation": [
				40.198513,
				16.7999401,
				193.860626
			],
			"rotation": [
				0,
				0.866025865,
				-0,
				0.499999195
			],
			"scale": [
				24.0000057,
				7.49998999,
				24.0000057
			],
			"mesh": 6
		}
	],
	"scenes": [
		{
			"name": "Usecases_Additional2",
			"nodes": [
				0,
				1,
				2,
				3,
				4,
				5,
				6,
				7,
				8,
				9,
				10,
				11,
				12,
				13,
				14,
				15,
				16,
				17,
				18,
				19,
				20,
				21,
				22,
				23,
				24,
				25,
				26,
				27
			]
		}
	]
}